<svg width="208" height="36" viewBox="0 0 208 36" fill="none" xmlns="http://www.w3.org/2000/svg">
<path fill-rule="evenodd" clip-rule="evenodd" d="M11.4515 24.4271C12.2451 24.8473 13.1498 25.0279 14.0498 24.9457C14.9499 24.8634 15.804 24.5221 16.5027 23.9655C17.2014 23.4088 17.7128 22.6623 17.9712 21.8217C18.2297 20.9811 18.2234 20.0847 17.9532 19.2476C17.6108 18.1801 17.4888 17.0576 17.5943 15.9443C17.6997 14.8311 18.0306 13.7489 18.5679 12.76C19.1052 11.7711 19.8384 10.8947 20.7253 10.1813C21.6123 9.46782 22.6357 8.93134 23.7368 8.60245C24.5907 8.34289 25.3465 7.84398 25.9089 7.16857C26.4714 6.49317 26.8154 5.67141 26.8977 4.80668C26.98 3.94195 26.7969 3.07291 26.3714 2.309C25.946 1.54502 25.2971 0.920238 24.5066 0.513293C23.7161 0.106347 22.8192 -0.0646463 21.9289 0.0219287C21.0384 0.10845 20.1943 0.448604 19.5026 0.999644C18.8109 1.55063 18.3027 2.28786 18.0418 3.11852C17.7809 3.94918 17.779 4.83617 18.0364 5.66785C18.712 7.81497 18.4835 10.1344 17.4011 12.1185C16.3185 14.1026 14.4702 15.5896 12.2605 16.2543C11.3881 16.4998 10.6118 16.9937 10.032 17.6722C9.45225 18.3507 9.09566 19.1824 9.0085 20.0597C8.9214 20.937 9.10766 21.8195 9.54324 22.5929C9.97881 23.3664 10.6436 23.9951 11.4515 24.3978V24.4271ZM39.341 29.3132C39.0203 28.8179 38.6011 28.3895 38.1078 28.0532C37.6145 27.7168 37.0571 27.4793 36.4681 27.3544C34.2148 26.8458 32.2605 25.4924 31.0322 23.5898C29.8041 21.6872 29.4019 19.3903 29.9135 17.2008C30.1102 16.3546 30.0449 15.4708 29.7257 14.6605C29.4065 13.8502 28.8477 13.1494 28.1195 12.6463C27.3912 12.1432 26.526 11.8601 25.6324 11.8326C24.739 11.8051 23.857 12.0343 23.0974 12.4916C22.3377 12.949 21.7343 13.6139 21.3627 14.4029C20.9913 15.192 20.8683 16.0699 21.0093 16.9266C21.1503 17.7832 21.5491 18.5804 22.1554 19.2178C22.7617 19.8553 23.5486 20.3047 24.4173 20.5095C25.5411 20.7555 26.6038 21.2143 27.5445 21.8596C28.4852 22.5049 29.2854 23.3241 29.8992 24.27C30.5131 25.2161 30.9285 26.2703 31.1216 27.3724C31.3148 28.4745 31.2819 29.6028 31.0249 30.6925C30.8727 31.395 30.8998 32.123 31.104 32.8129C31.3081 33.5029 31.6831 34.1339 32.1961 34.6511C32.7092 35.1683 33.3448 35.5558 34.0476 35.7799C34.7503 36.0041 35.4989 36.058 36.228 35.9371C36.9573 35.8162 37.6449 35.524 38.2311 35.0861C38.8172 34.6482 39.2841 34.0778 39.5911 33.4247C39.898 32.7715 40.0357 32.0554 39.9921 31.3389C39.9485 30.6222 39.725 29.9268 39.341 29.3132ZM21.3807 24.1114C21.9285 23.8657 22.5213 23.7286 23.1244 23.7081C23.8653 23.6898 24.5995 23.848 25.2629 24.1688C25.9262 24.4896 26.4984 24.9631 26.9295 25.5481C27.3606 26.1332 27.6374 26.8118 27.7357 27.5246C27.834 28.2375 27.7508 28.9628 27.4935 29.6372C27.236 30.3117 26.8123 30.9147 26.2592 31.3934C25.7062 31.8722 25.0407 32.2121 24.3209 32.3835C23.6012 32.5549 22.8491 32.5526 22.1304 32.3767C21.4118 32.2009 20.7486 31.8568 20.1987 31.3746C19.354 30.6136 18.3629 30.0218 17.2822 29.6331C16.2014 29.2443 15.0522 29.0664 13.9005 29.1093C12.7488 29.1522 11.6171 29.4153 10.5702 29.8833C9.52341 30.3513 8.58204 31.0152 7.79999 31.8368C7.28592 32.3538 6.64925 32.7408 5.94553 32.964C5.24186 33.1872 4.49253 33.2399 3.76303 33.1175C3.03354 32.995 2.34604 32.7013 1.76047 32.2616C1.17491 31.822 0.709169 31.25 0.403804 30.5956C0.0984401 29.9411 -0.0371605 29.2241 0.00872472 28.507C0.0546654 27.79 0.280703 27.0947 0.667227 26.482C1.0537 25.8693 1.58882 25.3576 2.22599 24.9918C2.86311 24.6259 3.58288 24.4169 4.32238 24.383C4.92316 24.3602 5.52261 24.4535 6.08585 24.6576C6.64914 24.8616 7.16498 25.1723 7.60345 25.5715C9.30042 27.0955 11.5502 27.9055 13.8608 27.8244C16.1714 27.7432 18.355 26.7777 19.934 25.1387C20.341 24.7063 20.8328 24.3571 21.3807 24.1114Z" fill="#355B3E"/>
<path d="M57.2727 10.2614V6.72727H75.8409V10.2614H68.6477V30H64.4659V10.2614H57.2727ZM77.4261 30V12.5455H81.4148V15.4545H81.5966C81.9148 14.447 82.4602 13.6705 83.233 13.125C84.0133 12.572 84.9034 12.2955 85.9034 12.2955C86.1307 12.2955 86.3845 12.3068 86.6648 12.3295C86.9527 12.3447 87.1913 12.3712 87.3807 12.4091V16.1932C87.2064 16.1326 86.9299 16.0795 86.5511 16.0341C86.1799 15.9811 85.8201 15.9545 85.4716 15.9545C84.7216 15.9545 84.0473 16.1174 83.4489 16.4432C82.858 16.7614 82.392 17.2045 82.0511 17.7727C81.7102 18.3409 81.5398 18.9962 81.5398 19.7386V30H77.4261ZM94.8239 30.3523C93.7178 30.3523 92.7216 30.1553 91.8352 29.7614C90.9564 29.3598 90.2595 28.7689 89.7443 27.9886C89.2367 27.2083 88.983 26.2462 88.983 25.1023C88.983 24.1174 89.1648 23.303 89.5284 22.6591C89.892 22.0152 90.3883 21.5 91.017 21.1136C91.6458 20.7273 92.3542 20.4356 93.142 20.2386C93.9375 20.0341 94.7595 19.8864 95.608 19.7955C96.6307 19.6894 97.4602 19.5947 98.0966 19.5114C98.733 19.4205 99.1951 19.2841 99.483 19.1023C99.7784 18.9129 99.9261 18.6212 99.9261 18.2273V18.1591C99.9261 17.303 99.6723 16.6402 99.1648 16.1705C98.6572 15.7008 97.9261 15.4659 96.9716 15.4659C95.964 15.4659 95.1648 15.6856 94.5739 16.125C93.9905 16.5644 93.5966 17.0833 93.392 17.6818L89.5511 17.1364C89.8542 16.0758 90.3542 15.1894 91.0511 14.4773C91.7481 13.7576 92.6004 13.2197 93.608 12.8636C94.6155 12.5 95.7292 12.3182 96.9489 12.3182C97.7898 12.3182 98.6269 12.4167 99.4602 12.6136C100.294 12.8106 101.055 13.1364 101.744 13.5909C102.434 14.0379 102.987 14.6477 103.403 15.4205C103.828 16.1932 104.04 17.1591 104.04 18.3182V30H100.085V27.6023H99.9489C99.6989 28.0871 99.3466 28.5417 98.892 28.9659C98.4451 29.3826 97.8807 29.7197 97.1989 29.9773C96.5246 30.2273 95.733 30.3523 94.8239 30.3523ZM95.892 27.3295C96.7178 27.3295 97.4337 27.1667 98.0398 26.8409C98.6458 26.5076 99.1117 26.0682 99.4375 25.5227C99.7708 24.9773 99.9375 24.3826 99.9375 23.7386V21.6818C99.8087 21.7879 99.589 21.8864 99.2784 21.9773C98.9754 22.0682 98.6345 22.1477 98.2557 22.2159C97.8769 22.2841 97.5019 22.3447 97.1307 22.3977C96.7595 22.4508 96.4375 22.4962 96.1648 22.5341C95.5511 22.6174 95.0019 22.7538 94.517 22.9432C94.0322 23.1326 93.6496 23.3977 93.3693 23.7386C93.089 24.072 92.9489 24.5038 92.9489 25.0341C92.9489 25.7917 93.2254 26.3636 93.7784 26.75C94.3314 27.1364 95.036 27.3295 95.892 27.3295ZM123.142 12.5455L116.926 30H112.381L106.165 12.5455H110.551L114.562 25.5114H114.744L118.767 12.5455H123.142ZM130.511 30.3523C129.405 30.3523 128.409 30.1553 127.523 29.7614C126.644 29.3598 125.947 28.7689 125.432 27.9886C124.924 27.2083 124.67 26.2462 124.67 25.1023C124.67 24.1174 124.852 23.303 125.216 22.6591C125.58 22.0152 126.076 21.5 126.705 21.1136C127.333 20.7273 128.042 20.4356 128.83 20.2386C129.625 20.0341 130.447 19.8864 131.295 19.7955C132.318 19.6894 133.148 19.5947 133.784 19.5114C134.42 19.4205 134.883 19.2841 135.17 19.1023C135.466 18.9129 135.614 18.6212 135.614 18.2273V18.1591C135.614 17.303 135.36 16.6402 134.852 16.1705C134.345 15.7008 133.614 15.4659 132.659 15.4659C131.652 15.4659 130.852 15.6856 130.261 16.125C129.678 16.5644 129.284 17.0833 129.08 17.6818L125.239 17.1364C125.542 16.0758 126.042 15.1894 126.739 14.4773C127.436 13.7576 128.288 13.2197 129.295 12.8636C130.303 12.5 131.417 12.3182 132.636 12.3182C133.477 12.3182 134.314 12.4167 135.148 12.6136C135.981 12.8106 136.742 13.1364 137.432 13.5909C138.121 14.0379 138.674 14.6477 139.091 15.4205C139.515 16.1932 139.727 17.1591 139.727 18.3182V30H135.773V27.6023H135.636C135.386 28.0871 135.034 28.5417 134.58 28.9659C134.133 29.3826 133.568 29.7197 132.886 29.9773C132.212 30.2273 131.42 30.3523 130.511 30.3523ZM131.58 27.3295C132.405 27.3295 133.121 27.1667 133.727 26.8409C134.333 26.5076 134.799 26.0682 135.125 25.5227C135.458 24.9773 135.625 24.3826 135.625 23.7386V21.6818C135.496 21.7879 135.277 21.8864 134.966 21.9773C134.663 22.0682 134.322 22.1477 133.943 22.2159C133.564 22.2841 133.189 22.3447 132.818 22.3977C132.447 22.4508 132.125 22.4962 131.852 22.5341C131.239 22.6174 130.689 22.7538 130.205 22.9432C129.72 23.1326 129.337 23.3977 129.057 23.7386C128.777 24.072 128.636 24.5038 128.636 25.0341C128.636 25.7917 128.913 26.3636 129.466 26.75C130.019 27.1364 130.723 27.3295 131.58 27.3295ZM147.977 6.72727V30H143.864V6.72727H147.977ZM152.207 30V12.5455H156.321V30H152.207ZM154.276 10.0682C153.624 10.0682 153.063 9.85227 152.594 9.42045C152.124 8.98106 151.889 8.45454 151.889 7.84091C151.889 7.2197 152.124 6.69318 152.594 6.26136C153.063 5.82197 153.624 5.60227 154.276 5.60227C154.935 5.60227 155.495 5.82197 155.957 6.26136C156.427 6.69318 156.662 7.2197 156.662 7.84091C156.662 8.45454 156.427 8.98106 155.957 9.42045C155.495 9.85227 154.935 10.0682 154.276 10.0682ZM160.324 30V27.3864L169.324 16.1023V15.9545H160.619V12.5455H174.358V15.3523L165.79 26.4432V26.5909H174.653V30H160.324ZM185.747 30.3409C183.997 30.3409 182.486 29.9773 181.213 29.25C179.948 28.5152 178.974 27.4773 178.293 26.1364C177.611 24.7879 177.27 23.2008 177.27 21.375C177.27 19.5795 177.611 18.0038 178.293 16.6477C178.982 15.2841 179.944 14.2235 181.179 13.4659C182.414 12.7008 183.865 12.3182 185.531 12.3182C186.607 12.3182 187.622 12.4924 188.577 12.8409C189.539 13.1818 190.387 13.7121 191.122 14.4318C191.865 15.1515 192.448 16.0682 192.872 17.1818C193.296 18.2879 193.509 19.6061 193.509 21.1364V22.3977H179.202V19.625H189.565C189.558 18.8371 189.387 18.1364 189.054 17.5227C188.721 16.9015 188.255 16.4129 187.656 16.0568C187.065 15.7008 186.376 15.5227 185.588 15.5227C184.747 15.5227 184.009 15.7273 183.372 16.1364C182.736 16.5379 182.24 17.0682 181.884 17.7273C181.535 18.3788 181.357 19.0947 181.349 19.875V22.2955C181.349 23.3106 181.535 24.1818 181.906 24.9091C182.277 25.6288 182.796 26.1818 183.463 26.5682C184.13 26.947 184.91 27.1364 185.804 27.1364C186.402 27.1364 186.944 27.053 187.429 26.8864C187.914 26.7121 188.334 26.4583 188.69 26.125C189.046 25.7917 189.315 25.3788 189.497 24.8864L193.338 25.3182C193.096 26.3333 192.634 27.2197 191.952 27.9773C191.277 28.7273 190.414 29.3106 189.361 29.7273C188.308 30.1364 187.103 30.3409 185.747 30.3409ZM196.989 30V12.5455H200.977V15.4545H201.159C201.477 14.447 202.023 13.6705 202.795 13.125C203.576 12.572 204.466 12.2955 205.466 12.2955C205.693 12.2955 205.947 12.3068 206.227 12.3295C206.515 12.3447 206.754 12.3712 206.943 12.4091V16.1932C206.769 16.1326 206.492 16.0795 206.114 16.0341C205.742 15.9811 205.383 15.9545 205.034 15.9545C204.284 15.9545 203.61 16.1174 203.011 16.4432C202.42 16.7614 201.955 17.2045 201.614 17.7727C201.273 18.3409 201.102 18.9962 201.102 19.7386V30H196.989Z" fill="#355B3E"/>
</svg>
